<?xml version="1.0" encoding="UTF-8" standalone="no"?>
<!DOCTYPE svg PUBLIC "-//W3C//DTD SVG 1.1//EN" "http://www.w3.org/Graphics/SVG/1.1/DTD/svg11.dtd">
<svg width="100%" height="100%" viewBox="0 0 569 205" version="1.1" xmlns="http://www.w3.org/2000/svg" xmlns:xlink="http://www.w3.org/1999/xlink" xml:space="preserve" xmlns:serif="http://www.serif.com/" style="fill-rule:evenodd;clip-rule:evenodd;stroke-linejoin:round;stroke-miterlimit:2;">
    <g id="aardworx--default-" serif:id="aardworx-(default)">
        <g id="aardworx" transform="matrix(1,0,0,1,195,67)">
            <path d="M19.754,15C28.406,15 33,17.98 33,27.627L33,54.294L27.181,54.294L26.339,48.255C23.582,51.157 18.223,55 11.408,55C4.594,55 0,51.157 0,44.176L0,40.176C0,34.059 3.828,30.608 10.566,30.608L25.573,30.608L25.573,27.627C25.497,22.922 23.889,21.431 18.146,21.431C14.471,21.431 8.116,21.902 2.297,22.373L1.608,16.804C6.891,15.863 14.548,15 19.754,15ZM8,43.769C8,47.462 9.678,49 13.415,49C16.771,49 21.729,47.538 26,43.692L26,37L12.424,37C8.992,37.154 8,38.923 8,41.769L8,43.769ZM62.754,15C71.406,15 76,17.98 76,27.627L76,54.294L70.181,54.294L69.339,48.255C66.582,51.157 61.223,55 54.408,55C47.594,55 43,51.157 43,44.176L43,40.176C43,34.059 46.828,30.608 53.566,30.608L68.573,30.608L68.573,27.627C68.497,22.922 66.889,21.431 61.146,21.431C57.471,21.431 51.116,21.902 45.297,22.373L44.608,16.804C49.891,15.863 57.548,15 62.754,15ZM50,43.769C50,47.462 51.678,49 55.415,49C58.771,49 63.729,47.538 68,43.692L68,37L54.424,37C50.992,37.154 50,38.923 50,41.769L50,43.769ZM109.236,15L111,15L110.157,22.084L107.856,22.084C103.869,22.084 100.188,23.719 94.438,26.443L94.438,54L87,54L87,16.012L92.751,16.012L93.518,21.85C98.808,17.569 104.252,15 109.236,15ZM143.405,0L151,0L151,54.073L145.049,54.073L144.423,48.897C140.586,52.142 135.34,55 129.389,55C119.758,55 116,48.048 116,35.07C116,20.239 120.855,15.372 130.564,15.372C135.105,15.372 139.647,16.454 143.718,18.771C143.483,16.299 143.405,13.982 143.405,11.355L143.405,0ZM124,35.304C124,46.183 126.28,49 131.904,49C135.856,49 138.212,47.591 143,44.226L143,23.878C138.972,22.783 136.008,22 132.36,22C126.28,22 124,24.426 124,35.304ZM218,16L207.462,51.898C207.077,53.221 206.077,54 204.615,54L197.923,54C196.538,54 195.385,53.066 195.077,51.586L189.615,26.59C189.231,24.566 188.923,22.541 188.462,20.516L187.538,20.516C187.154,22.541 186.692,24.566 186.308,26.59L180.923,51.586C180.615,53.066 179.462,54 178,54L171.385,54C170,54 168.923,53.221 168.615,51.898L158,16L165.692,16L172.923,43.41C173.385,45.357 173.846,47.303 174.077,49.25L175.077,49.25C175.538,47.303 176,45.357 176.385,43.41L181.923,18.336C182.231,16.934 183.231,16 184.692,16L191.385,16C192.769,16 193.846,16.934 194.154,18.414L199.615,43.41C200,45.357 200.462,47.225 200.923,49.25L201.923,49.25C202.231,47.225 202.538,45.434 203.077,43.41L210.308,16L218,16ZM242,15C255.133,15 260,20.525 260,35.078C260,49.553 255.133,55 242,55C228.867,55 224,49.553 224,35.078C224,20.525 228.867,15 242,15ZM242,22C234.348,22 232,25 232,35.538C232,45.923 234.348,49 242,49C249.652,49 252,45.923 252,35.538C252,25 249.652,22 242,22ZM292.236,15L294,15L293.157,22.084L290.856,22.084C286.869,22.084 283.188,23.719 277.438,26.443L277.438,54L270,54L270,16.012L275.751,16.012L276.518,21.85C281.808,17.569 287.252,15 292.236,15ZM326.907,54L316.732,37.18L315.268,37.18L305.093,54L297,54L309.333,34.377L297.925,16L305.941,16L315.114,31.34L316.809,31.34L325.982,16L333.998,16L322.667,34.377L335,54L326.907,54Z" style="fill:white;"/>
        </g>
        <g id="Ring" transform="matrix(1,0,0,1,111,42)">
            <path d="M20.251,111L17.325,103.573C19.772,102.497 22.116,101.229 24.338,99.786L28.407,106.644C25.821,108.306 23.096,109.765 20.251,111ZM0.159,0C30.68,1.393 55,26.748 55,57.822C55,62.067 54.546,66.205 53.685,70.19L45.967,68.344C46.69,64.952 47.071,61.432 47.071,57.822C47.071,31.104 26.215,9.29 0,7.985L0.159,0L0.159,0ZM51.22,78.508C50.012,81.686 48.534,84.729 46.813,87.609L40.112,83.334C41.582,80.852 42.843,78.232 43.872,75.496L51.22,78.508L51.22,78.508ZM41.789,94.743C39.839,97.11 37.706,99.319 35.411,101.346L30.35,95.195C32.318,93.441 34.146,91.532 35.815,89.487L41.789,94.743Z" style="fill:url(#_Linear1);"/>
        </g>
        <g id="Aardvark" transform="matrix(1,0,0,1,39,39)">
            <path d="M41.496,71.427L41.528,71.425C38.395,75.093 35.295,77.756 32.23,79.414C29.164,81.072 26.246,82.135 23.474,82.603C25.781,81.647 28.272,79.882 30.946,77.306C31.802,76.482 32.565,75.735 33.236,75.066C31.412,75.676 29.67,76.289 28.008,76.904C22.547,78.925 17.537,83.652 14.484,84.102C11.43,84.553 7.532,84.053 4.814,82.765C2.095,81.477 -0.806,73.666 0.206,72.896C1.219,72.125 7.581,71.989 11.659,68.455C15.736,64.92 24.299,55.878 39.027,44.065C40.095,42.805 43.015,35.442 49.925,35.442C54.531,35.442 58.825,37.206 62.807,40.735C66.415,34.174 69.101,29.42 70.865,26.472C72.351,23.988 72.079,20.894 72.08,18.021C94.391,19.603 112,38.204 112,60.918C112,71.034 108.507,80.334 102.662,87.678C94.06,72.349 82.883,64.649 69.133,64.578C55.716,64.578 46.503,66.861 41.496,71.427ZM63.321,68.905C74.798,68.905 82.828,68.182 86.171,76.602C83.15,79.816 72.13,91.103 53.113,110.464C51.978,114.314 50.817,116.915 49.631,118.267C43.437,120.618 42.392,122.956 39.866,124.137C33.559,127.088 24.976,125.745 22.928,125.362C21.562,125.108 21.982,123.438 24.189,120.353C30.133,119.403 35.08,116.93 39.031,112.932C44.957,106.935 61.288,72.803 63.321,68.905ZM45.194,54.44C46.719,53.792 47.518,52.237 46.978,50.966C46.439,49.695 44.765,49.189 43.24,49.836C41.714,50.484 40.915,52.039 41.455,53.31C41.994,54.582 43.668,55.087 45.194,54.44ZM38.627,38.618C32.693,31.269 28.935,25.177 27.354,20.34C25.773,15.504 24.813,8.933 24.474,0.626C28.38,6.421 31.187,10.083 32.894,11.613C35.455,13.909 38.627,15.865 41.729,21.333C43.798,24.979 45.422,28.669 46.604,32.404C44.374,33.104 42.749,33.867 41.729,34.695C40.709,35.522 39.675,36.83 38.627,38.618ZM53.023,31.876C52.907,24.028 53.493,18.496 54.779,15.28C56.065,12.064 59.704,6.97 65.696,0C65.546,3.011 65.787,5.909 66.421,8.693C67.372,12.869 68.165,21.142 66.723,25.271C65.762,28.024 64.034,31.414 61.539,35.442C59.769,34.3 58.414,33.526 57.475,33.12C56.535,32.714 55.052,32.299 53.023,31.876Z" style="fill:white;"/>
        </g>
    </g>
    <defs>
        <linearGradient id="_Linear1" x1="0" y1="0" x2="1" y2="0" gradientUnits="userSpaceOnUse" gradientTransform="matrix(6.64473e-15,108.517,-108.517,6.64473e-15,27.5,0.494745)"><stop offset="0" style="stop-color:rgb(51,187,255);stop-opacity:1"/><stop offset="1" style="stop-color:rgb(13,47,64);stop-opacity:1"/></linearGradient>
    </defs>
</svg>
